<svg id="svg" version="1.1" xmlns="http://www.w3.org/2000/svg" xmlns:xlink="http://www.w3.org/1999/xlink" width="400" height="400" viewBox="0, 0, 400,400"><g id="svgg"><path id="path0" d="M146.200 177.282 C 143.663 178.169,142.211 180.220,141.771 183.537 C 141.502 185.559,141.470 185.600,140.148 185.600 L 138.800 185.600 138.800 188.200 L 138.800 190.800 140.192 190.800 L 141.585 190.800 141.692 199.700 L 141.800 208.600 144.900 208.717 L 148.000 208.834 148.000 199.817 L 148.000 190.800 150.600 190.800 L 153.200 190.800 153.200 188.200 L 153.200 185.600 150.600 185.600 C 148.017 185.600,148.000 185.593,148.000 184.476 C 148.000 182.418,148.793 181.846,151.288 182.104 L 153.495 182.331 154.397 180.407 C 154.893 179.348,155.180 178.291,155.035 178.056 C 154.333 176.921,148.656 176.424,146.200 177.282 M305.741 177.237 C 303.349 177.930,301.209 181.355,301.202 184.500 C 301.200 185.518,301.080 185.600,299.581 185.600 L 297.962 185.600 298.081 188.100 L 298.200 190.600 299.700 190.724 L 301.200 190.848 301.200 199.841 L 301.200 208.834 304.300 208.717 L 307.400 208.600 307.508 199.719 L 307.615 190.838 310.108 190.719 L 312.600 190.600 312.719 188.100 L 312.838 185.600 310.219 185.600 L 307.600 185.600 307.600 184.249 C 307.600 182.381,308.382 181.858,310.824 182.093 L 312.844 182.287 313.853 180.295 C 314.409 179.199,314.714 178.169,314.531 178.006 C 313.291 176.895,308.399 176.467,305.741 177.237 M83.667 177.625 C 82.297 178.174,82.826 178.984,84.631 179.104 C 86.472 179.227,87.415 178.738,87.071 177.840 C 86.798 177.130,85.160 177.026,83.667 177.625 M88.549 177.789 C 88.202 178.694,89.018 179.186,90.876 179.194 C 93.643 179.205,93.305 177.699,90.456 177.317 C 89.139 177.140,88.762 177.234,88.549 177.789 M118.000 193.017 L 118.000 208.834 121.100 208.717 L 124.200 208.600 124.305 192.900 L 124.409 177.200 121.205 177.200 L 118.000 177.200 118.000 193.017 M129.200 179.800 L 129.200 182.400 132.200 182.400 L 135.200 182.400 135.200 179.800 L 135.200 177.200 132.200 177.200 L 129.200 177.200 129.200 179.800 M233.600 179.800 L 233.600 182.400 236.800 182.400 L 240.000 182.400 240.000 179.800 L 240.000 177.200 236.800 177.200 L 233.600 177.200 233.600 179.800 M318.400 179.800 L 318.400 182.400 321.600 182.400 L 324.800 182.400 324.800 179.800 L 324.800 177.200 321.600 177.200 L 318.400 177.200 318.400 179.800 M83.204 180.516 C 80.711 181.777,82.653 183.621,85.494 182.690 C 87.896 181.903,87.688 180.013,85.200 180.012 C 84.650 180.012,83.752 180.239,83.204 180.516 M89.011 180.542 C 87.961 181.310,88.485 182.275,90.212 182.752 C 93.364 183.623,95.201 181.541,92.266 180.425 C 90.775 179.858,89.904 179.889,89.011 180.542 M274.000 182.800 L 274.000 185.600 272.400 185.600 L 270.800 185.600 270.800 188.200 L 270.800 190.800 272.400 190.800 L 274.000 190.800 274.000 197.054 C 274.000 206.964,274.925 208.600,280.526 208.600 C 285.108 208.600,285.200 208.539,285.201 205.513 L 285.201 203.000 283.005 203.137 C 280.172 203.313,280.000 202.904,280.000 195.974 L 280.000 190.800 282.600 190.800 L 285.200 190.800 285.200 188.219 L 285.200 185.638 282.700 185.519 L 280.200 185.400 280.082 182.700 L 279.963 180.000 276.982 180.000 L 274.000 180.000 274.000 182.800 M331.918 182.700 L 331.800 185.400 330.300 185.524 L 328.800 185.648 328.800 188.224 L 328.800 190.800 330.400 190.800 L 332.000 190.800 332.000 197.474 C 332.000 207.425,333.118 209.116,339.432 208.711 C 343.129 208.473,343.200 208.412,343.200 205.476 L 343.200 203.000 341.127 203.144 C 338.147 203.350,338.000 203.030,338.000 196.343 L 338.000 190.838 340.500 190.719 L 343.000 190.600 343.119 188.100 L 343.238 185.600 340.619 185.600 L 338.000 185.600 338.000 182.800 L 338.000 180.000 335.018 180.000 L 332.037 180.000 331.918 182.700 M77.755 181.737 C 76.550 182.774,76.647 184.000,77.934 184.000 C 79.012 184.000,80.800 182.484,80.800 181.571 C 80.800 180.473,79.118 180.565,77.755 181.737 M94.582 181.230 C 94.148 181.931,96.025 183.600,97.246 183.600 C 98.803 183.600,99.010 182.973,97.840 181.803 C 96.810 180.774,95.054 180.465,94.582 181.230 M74.070 182.926 C 72.994 184.071,72.956 184.800,73.971 184.800 C 74.703 184.800,76.400 183.085,76.400 182.346 C 76.400 181.654,74.918 182.023,74.070 182.926 M99.200 182.346 C 99.200 183.085,100.897 184.800,101.629 184.800 C 102.671 184.800,102.601 183.928,101.474 182.870 C 100.550 182.002,99.200 181.691,99.200 182.346 M82.089 184.623 C 80.988 185.394,80.924 187.024,81.974 187.586 C 84.674 189.031,88.661 186.421,86.720 184.480 C 86.037 183.797,83.141 183.886,82.089 184.623 M89.159 184.753 C 88.350 185.408,88.289 185.638,88.688 186.513 C 89.752 188.850,94.049 188.703,94.324 186.320 C 94.554 184.340,91.000 183.262,89.159 184.753 M77.800 184.862 C 75.683 186.020,75.197 188.800,77.111 188.800 C 79.279 188.800,81.111 186.339,79.968 184.962 C 79.415 184.295,78.882 184.270,77.800 184.862 M95.600 185.000 C 94.979 185.748,95.726 187.825,96.829 188.415 C 99.509 189.850,100.754 187.442,98.369 185.436 C 96.962 184.251,96.307 184.148,95.600 185.000 M166.133 185.922 C 159.788 188.501,156.838 194.873,159.022 201.282 C 161.573 208.771,172.582 211.456,179.400 206.252 C 180.181 205.656,180.162 205.603,178.536 203.963 L 176.872 202.284 175.228 202.942 C 171.738 204.338,167.421 203.624,165.635 201.354 C 163.963 199.228,164.060 199.200,173.253 199.200 L 181.705 199.200 181.515 196.231 C 180.987 188.015,173.436 182.954,166.133 185.922 M195.258 185.604 C 194.740 185.824,193.795 186.376,193.158 186.830 L 192.000 187.654 192.000 186.627 C 192.000 185.610,191.969 185.600,188.800 185.600 L 185.600 185.600 185.600 201.400 L 185.600 217.200 188.800 217.200 L 192.000 217.200 192.012 211.500 C 192.021 207.418,192.140 205.999,192.434 206.503 C 193.223 207.858,195.791 208.800,198.684 208.796 C 213.204 208.775,213.510 186.042,199.000 185.338 C 197.460 185.263,195.776 185.383,195.258 185.604 M225.332 185.730 C 223.709 186.332,221.830 188.016,220.916 189.689 L 220.200 191.000 220.082 188.300 L 219.963 185.600 216.982 185.600 L 214.000 185.600 214.000 197.200 L 214.000 208.800 216.956 208.800 L 219.913 208.800 220.073 202.900 C 220.247 196.528,220.513 195.565,222.664 193.521 C 224.155 192.105,226.387 191.200,228.387 191.200 L 230.000 191.200 230.000 188.200 L 230.000 185.200 228.300 185.230 C 227.365 185.247,226.029 185.472,225.332 185.730 M254.968 186.154 C 253.851 186.674,252.458 187.708,251.873 188.450 L 250.809 189.800 250.804 187.700 L 250.800 185.600 247.800 185.600 L 244.800 185.600 244.800 197.200 L 244.800 208.800 247.800 208.800 L 250.800 208.800 250.800 202.180 C 250.800 194.822,250.961 194.196,253.393 192.059 C 254.536 191.057,255.185 190.800,256.581 190.800 C 260.409 190.800,260.552 191.139,260.800 200.800 L 261.000 208.600 264.140 208.718 L 267.280 208.835 267.123 200.318 C 266.976 192.373,266.903 191.671,266.029 189.879 C 263.975 185.667,259.355 184.111,254.968 186.154 M73.107 186.285 C 72.048 187.460,71.790 189.145,72.621 189.463 C 73.534 189.814,75.291 187.841,75.122 186.657 C 74.965 185.562,73.930 185.371,73.107 186.285 M100.400 186.578 C 100.400 187.942,102.071 189.812,102.979 189.463 C 103.521 189.256,103.621 188.937,103.411 188.096 C 102.833 185.779,100.400 184.552,100.400 186.578 M129.200 197.200 L 129.200 208.800 132.200 208.800 L 135.200 208.800 135.200 197.200 L 135.200 185.600 132.200 185.600 L 129.200 185.600 129.200 197.200 M233.600 197.200 L 233.600 208.800 236.800 208.800 L 240.000 208.800 240.000 197.200 L 240.000 185.600 236.800 185.600 L 233.600 185.600 233.600 197.200 M318.494 197.100 L 318.600 208.600 321.700 208.717 L 324.800 208.834 324.800 197.217 L 324.800 185.600 321.594 185.600 L 318.388 185.600 318.494 197.100 M82.128 189.675 C 81.016 190.213,80.279 191.980,80.613 193.309 C 81.258 195.881,84.527 196.663,86.252 194.658 C 88.720 191.789,85.587 188.003,82.128 189.675 M89.455 190.255 C 87.394 192.315,88.805 195.760,91.711 195.760 C 94.171 195.760,95.582 193.769,94.800 191.401 C 94.044 189.109,91.208 188.501,89.455 190.255 M76.730 190.015 C 75.106 190.963,74.912 194.804,76.446 195.625 C 78.706 196.834,80.733 192.333,78.800 190.400 C 77.901 189.501,77.681 189.460,76.730 190.015 M96.411 191.366 C 95.472 194.212,98.037 197.230,99.675 195.206 C 101.150 193.385,100.075 190.000,98.021 190.000 C 97.057 190.000,96.786 190.229,96.411 191.366 M72.069 191.100 C 71.008 193.170,71.303 196.000,72.580 196.000 C 73.278 196.000,74.400 194.023,74.400 192.794 C 74.400 190.786,72.819 189.637,72.069 191.100 M101.528 191.398 C 100.867 192.848,101.832 195.800,102.967 195.800 C 104.215 195.800,104.612 193.895,103.733 192.122 C 102.811 190.262,102.145 190.043,101.528 191.398 M172.513 190.948 C 173.879 191.531,175.319 192.942,175.728 194.100 C 175.955 194.745,175.536 194.800,170.387 194.800 C 167.314 194.800,164.800 194.693,164.800 194.562 C 164.800 191.973,169.620 189.716,172.513 190.948 M200.811 191.480 C 204.922 194.306,204.609 200.854,200.269 202.825 C 193.534 205.883,188.252 196.698,193.976 191.881 C 195.553 190.555,199.157 190.343,200.811 191.480 M68.854 192.990 C 68.089 195.759,69.523 197.259,70.398 194.606 C 70.915 193.038,70.626 191.600,69.792 191.600 C 69.487 191.600,69.065 192.226,68.854 192.990 M105.048 192.553 C 104.750 193.738,105.501 196.000,106.192 196.000 C 106.878 196.000,107.130 194.505,106.714 192.900 C 106.320 191.379,105.391 191.185,105.048 192.553 M69.067 197.067 C 68.323 197.810,69.079 201.600,69.971 201.600 C 70.594 201.600,70.843 199.542,70.387 198.160 C 69.946 196.825,69.597 196.536,69.067 197.067 M105.660 197.328 C 104.396 198.851,104.859 202.543,106.145 201.200 C 107.018 200.288,107.307 198.300,106.690 197.456 C 106.221 196.815,106.098 196.799,105.660 197.328 M71.538 198.100 C 71.368 200.559,72.188 202.400,73.454 202.400 C 74.564 202.400,74.610 199.017,73.519 197.702 C 72.816 196.855,71.607 197.098,71.538 198.100 M75.614 197.974 C 74.031 200.932,77.260 204.912,79.040 202.195 C 80.246 200.355,78.927 197.200,76.952 197.200 C 76.444 197.200,75.842 197.548,75.614 197.974 M81.965 197.713 C 80.134 199.119,80.077 201.908,81.857 203.074 C 85.216 205.275,88.926 201.179,86.219 198.258 C 85.146 197.101,83.104 196.839,81.965 197.713 M89.382 198.182 C 88.134 199.429,88.101 201.223,89.300 202.556 C 90.870 204.300,93.569 203.994,94.625 201.951 C 96.357 198.603,92.054 195.510,89.382 198.182 M96.829 198.254 C 94.815 200.815,97.199 204.832,99.333 202.474 C 100.368 201.330,100.601 199.367,99.840 198.205 C 98.991 196.909,97.872 196.927,96.829 198.254 M102.030 197.764 C 101.258 198.694,101.082 200.919,101.714 201.765 C 102.489 202.804,103.420 202.359,103.972 200.686 C 104.755 198.311,103.341 196.184,102.030 197.764 M290.543 201.981 C 288.235 202.954,287.743 205.805,289.569 207.631 C 291.032 209.093,292.726 209.170,294.269 207.842 C 297.230 205.295,294.156 200.460,290.543 201.981 M72.267 203.467 C 71.698 204.035,72.048 205.241,73.135 206.458 C 74.383 207.854,75.200 207.736,75.200 206.158 C 75.200 204.660,73.048 202.685,72.267 203.467 M101.467 203.926 C 100.505 204.989,100.175 207.028,100.918 207.313 C 101.670 207.602,103.115 206.280,103.433 205.012 C 103.879 203.233,102.689 202.576,101.467 203.926 M76.267 204.267 C 75.676 204.857,76.058 206.494,77.008 207.444 C 78.294 208.730,80.136 208.649,80.328 207.297 C 80.564 205.640,77.317 203.217,76.267 204.267 M96.903 204.609 C 94.966 205.975,94.754 208.400,96.573 208.400 C 98.156 208.400,99.662 206.895,99.522 205.454 C 99.378 203.975,98.297 203.626,96.903 204.609 M81.900 205.232 C 80.841 205.849,81.027 207.468,82.249 208.269 C 83.517 209.100,85.870 209.102,86.699 208.272 C 88.611 206.360,84.468 203.736,81.900 205.232 M90.400 205.084 C 88.392 205.822,87.839 207.561,89.289 208.577 C 91.144 209.876,94.400 208.639,94.400 206.635 C 94.400 205.285,92.187 204.427,90.400 205.084 M73.200 208.619 C 73.200 209.364,75.172 211.276,75.744 211.085 C 76.541 210.820,76.406 210.115,75.357 209.066 C 74.169 207.878,73.200 207.677,73.200 208.619 M100.470 208.926 C 99.560 209.894,99.301 211.200,100.018 211.200 C 100.660 211.200,102.400 209.314,102.400 208.618 C 102.400 207.715,101.468 207.863,100.470 208.926 M77.040 209.535 C 76.710 210.069,77.986 211.614,79.110 212.042 C 80.857 212.706,81.594 211.558,80.270 210.234 C 79.272 209.236,77.466 208.845,77.040 209.535 M95.330 210.234 C 94.425 211.139,94.369 211.340,94.879 211.850 C 95.840 212.811,98.800 211.242,98.800 209.771 C 98.800 208.774,96.481 209.083,95.330 210.234 M82.500 210.265 C 81.716 210.581,81.914 211.926,82.815 212.408 C 84.209 213.154,86.979 212.745,87.118 211.773 C 87.304 210.472,84.365 209.512,82.500 210.265 M89.600 210.518 C 87.967 211.344,88.286 212.574,90.173 212.729 C 92.010 212.879,93.600 212.158,93.600 211.175 C 93.600 209.968,91.400 209.607,89.600 210.518 M83.200 214.014 C 82.681 214.361,82.704 214.495,83.376 215.008 C 84.438 215.817,87.200 215.805,87.200 214.990 C 87.200 213.900,84.394 213.215,83.200 214.014 M89.100 214.032 C 87.751 214.818,88.275 215.600,90.151 215.600 C 92.113 215.600,93.426 214.641,92.374 213.976 C 91.615 213.495,89.973 213.523,89.100 214.032 M125.708 225.511 C 121.977 226.108,122.723 232.744,126.526 232.787 C 129.620 232.822,131.663 227.723,129.172 226.183 C 128.426 225.722,126.602 225.368,125.708 225.511 M147.604 225.716 C 145.717 226.670,146.301 228.565,148.800 229.600 C 149.428 229.860,150.049 230.350,150.178 230.687 C 150.752 232.182,148.273 233.016,147.010 231.752 C 146.653 231.396,146.236 231.231,146.082 231.385 C 145.603 231.864,147.287 232.800,148.627 232.800 C 151.380 232.800,151.551 230.336,148.900 228.876 C 146.985 227.822,146.721 226.831,148.100 225.870 C 149.195 225.106,148.956 225.032,147.604 225.716 M155.600 229.776 C 155.600 232.396,155.771 234.458,156.000 234.600 C 156.258 234.760,156.400 233.137,156.400 230.024 C 156.400 227.075,156.245 225.200,156.000 225.200 C 155.757 225.200,155.600 226.992,155.600 229.776 M175.309 225.562 C 172.478 226.318,171.343 232.400,174.033 232.400 C 174.260 232.400,174.165 232.000,173.823 231.511 C 172.930 230.237,173.023 227.777,174.000 226.800 C 175.121 225.679,177.363 225.727,178.177 226.889 C 179.525 228.813,178.428 232.389,176.484 232.406 C 176.108 232.409,175.530 232.588,175.200 232.802 C 174.729 233.108,174.815 233.181,175.600 233.141 C 176.150 233.113,177.107 233.294,177.726 233.545 C 179.128 234.111,179.600 234.119,179.600 233.576 C 179.600 233.343,179.465 233.232,179.300 233.329 C 177.980 234.107,177.281 232.781,178.413 231.648 C 180.966 229.096,178.701 224.655,175.309 225.562 M193.300 225.475 C 192.453 225.645,192.400 225.852,192.400 228.994 C 192.400 231.291,192.244 232.396,191.900 232.535 C 191.625 232.646,192.030 232.737,192.800 232.737 C 193.570 232.737,193.975 232.646,193.700 232.535 C 192.774 232.162,193.030 226.108,193.985 225.805 C 195.252 225.402,196.400 226.267,196.400 227.624 C 196.400 228.648,196.217 228.857,195.128 229.074 C 193.949 229.310,193.920 229.353,194.735 229.654 C 195.219 229.833,195.989 230.614,196.447 231.390 C 196.905 232.165,197.576 232.797,197.940 232.794 C 198.318 232.790,198.429 232.662,198.200 232.494 C 196.798 231.464,195.935 229.535,196.566 228.838 C 198.292 226.930,196.296 224.874,193.300 225.475 M210.154 230.000 C 210.154 232.750,210.218 233.875,210.296 232.500 C 210.374 231.125,210.374 228.875,210.296 227.500 C 210.218 226.125,210.154 227.250,210.154 230.000 M222.500 225.475 C 221.653 225.645,221.600 225.852,221.600 228.994 C 221.600 231.291,221.444 232.396,221.100 232.535 C 220.825 232.646,221.230 232.737,222.000 232.737 C 222.770 232.737,223.175 232.646,222.900 232.535 C 222.096 232.211,222.216 226.156,223.033 225.843 C 224.020 225.464,224.344 225.544,225.170 226.370 C 226.156 227.356,225.830 228.727,224.532 229.053 C 223.567 229.295,223.566 229.301,224.382 229.873 C 224.835 230.189,225.478 230.978,225.813 231.624 C 226.147 232.271,226.701 232.800,227.044 232.800 C 227.500 232.800,227.324 232.366,226.387 231.183 C 225.196 229.680,225.151 229.517,225.753 228.852 C 227.492 226.931,225.508 224.872,222.500 225.475 M256.908 225.519 C 254.518 225.879,253.528 229.965,255.382 231.818 C 257.593 234.029,261.200 232.451,261.200 229.272 C 261.200 226.653,259.463 225.134,256.908 225.519 M263.800 225.461 C 263.069 225.613,263.012 225.893,263.134 228.694 C 263.247 231.269,263.155 231.844,262.558 232.280 C 261.933 232.737,262.037 232.794,263.424 232.754 C 264.291 232.728,264.685 232.625,264.300 232.524 C 263.709 232.370,263.600 231.856,263.600 229.213 C 263.600 225.898,263.972 225.283,265.657 225.818 C 267.360 226.359,267.483 228.613,265.832 229.028 C 264.976 229.243,264.988 229.288,266.276 230.653 C 267.004 231.425,267.600 232.224,267.600 232.428 C 267.600 232.633,267.871 232.800,268.203 232.800 C 268.644 232.800,268.487 232.361,267.616 231.158 C 266.570 229.715,266.497 229.445,267.013 228.930 C 268.781 227.161,266.656 224.867,263.800 225.461 M118.332 228.856 C 118.429 231.247,118.323 232.203,117.932 232.450 C 117.588 232.669,117.893 232.779,118.800 232.762 C 119.570 232.748,119.975 232.646,119.700 232.535 C 118.463 232.036,119.110 229.082,120.400 229.340 C 121.077 229.475,121.600 229.410,121.600 229.190 C 121.600 228.976,121.060 228.800,120.400 228.800 C 119.295 228.800,119.200 228.689,119.200 227.400 C 119.200 225.773,121.528 225.258,122.368 226.700 C 122.732 227.325,122.777 227.304,122.788 226.500 C 122.799 225.670,122.622 225.600,120.500 225.599 L 118.200 225.598 118.332 228.856 M129.208 227.826 C 130.307 231.156,127.101 233.901,124.800 231.600 C 123.915 230.715,123.725 228.461,124.426 227.151 C 125.490 225.164,128.469 225.584,129.208 227.826 M132.204 226.560 C 130.817 227.946,130.807 230.443,132.182 231.818 C 133.329 232.966,135.983 233.185,136.800 232.200 C 137.114 231.822,137.141 231.600,136.873 231.600 C 136.639 231.600,136.336 231.780,136.200 232.000 C 135.775 232.688,133.637 232.437,132.800 231.600 C 130.160 228.960,133.755 224.217,136.515 226.700 C 137.260 227.371,137.287 227.366,137.143 226.600 C 136.894 225.274,133.517 225.246,132.204 226.560 M138.866 228.639 C 139.057 232.431,141.096 234.253,142.821 232.175 C 143.292 231.608,143.373 231.608,143.690 232.175 C 143.882 232.519,144.346 232.786,144.720 232.768 C 145.137 232.749,145.206 232.659,144.900 232.535 C 144.556 232.396,144.400 231.286,144.400 228.967 C 144.400 226.540,144.260 225.600,143.900 225.599 C 143.546 225.599,143.400 226.442,143.400 228.482 C 143.400 231.208,143.340 231.399,142.303 231.983 C 140.397 233.056,139.800 232.261,139.800 228.654 C 139.800 226.345,139.667 225.599,139.256 225.599 C 138.832 225.600,138.746 226.269,138.866 228.639 M149.738 226.580 C 150.014 227.167,150.346 227.414,150.563 227.197 C 150.780 226.980,150.721 226.586,150.414 226.217 C 149.626 225.268,149.221 225.485,149.738 226.580 M161.932 228.856 C 162.029 231.247,161.923 232.203,161.532 232.450 C 161.160 232.686,161.302 232.790,162.000 232.795 L 163.000 232.802 162.872 229.201 C 162.785 226.776,162.589 225.600,162.272 225.599 C 161.937 225.598,161.838 226.546,161.932 228.856 M165.132 228.845 C 165.229 231.246,165.123 232.202,164.732 232.450 C 164.388 232.669,164.693 232.779,165.600 232.762 C 166.370 232.748,166.775 232.646,166.500 232.535 C 166.166 232.400,166.000 231.389,166.000 229.483 L 166.000 226.633 168.098 229.716 C 170.778 233.654,171.000 233.615,171.000 229.200 C 171.000 226.587,170.863 225.600,170.500 225.600 C 170.146 225.600,170.000 226.441,170.000 228.474 L 170.000 231.348 168.098 228.579 C 165.431 224.697,164.966 224.738,165.132 228.845 M181.202 228.633 C 181.461 232.533,182.816 233.785,185.070 232.206 C 185.821 231.680,185.945 231.680,186.147 232.206 C 186.272 232.533,186.696 232.786,187.087 232.768 C 187.506 232.750,187.594 232.654,187.300 232.535 C 186.956 232.396,186.800 231.286,186.800 228.967 C 186.800 226.540,186.660 225.600,186.300 225.599 C 185.946 225.599,185.800 226.442,185.800 228.482 C 185.800 234.002,182.294 234.168,182.083 228.658 C 182.005 226.600,181.808 225.600,181.483 225.600 C 181.130 225.600,181.054 226.418,181.202 228.633 M189.200 228.967 C 189.200 231.286,189.044 232.396,188.700 232.535 C 188.425 232.646,188.830 232.748,189.600 232.762 C 190.507 232.779,190.812 232.669,190.468 232.450 C 190.077 232.203,189.971 231.247,190.068 228.856 C 190.166 226.445,190.070 225.598,189.700 225.599 C 189.340 225.600,189.200 226.541,189.200 228.967 M199.932 228.856 C 200.029 231.247,199.923 232.203,199.532 232.450 C 198.918 232.840,203.175 232.938,204.167 232.557 C 204.515 232.424,204.800 232.036,204.800 231.695 C 204.800 231.152,204.710 231.157,204.069 231.738 C 202.523 233.136,200.800 232.616,200.800 230.750 C 200.800 229.130,200.822 229.104,202.000 229.340 C 202.677 229.475,203.200 229.410,203.200 229.190 C 203.200 228.976,202.660 228.800,202.000 228.800 C 200.895 228.800,200.800 228.689,200.800 227.400 C 200.800 225.773,203.128 225.258,203.968 226.700 C 204.332 227.325,204.377 227.304,204.388 226.500 C 204.399 225.670,204.222 225.600,202.100 225.599 L 199.800 225.598 199.932 228.856 M214.800 225.990 C 214.800 226.210,215.323 226.275,216.000 226.140 L 217.200 225.900 217.200 229.117 C 217.200 231.316,217.042 232.397,216.700 232.535 C 216.425 232.646,216.830 232.737,217.600 232.737 C 218.370 232.737,218.775 232.646,218.500 232.535 C 217.413 232.097,217.849 226.000,218.967 226.000 C 219.498 226.000,220.024 226.225,220.135 226.500 C 220.256 226.799,220.350 226.718,220.368 226.300 C 220.396 225.697,220.012 225.600,217.600 225.600 C 216.048 225.600,214.800 225.774,214.800 225.990 M230.400 226.178 C 230.400 226.533,229.860 227.893,229.200 229.200 C 227.990 231.597,227.706 232.800,228.350 232.800 C 228.543 232.800,228.810 232.250,228.945 231.577 C 229.302 229.790,232.610 229.902,232.584 231.700 C 232.569 232.779,232.614 232.800,234.961 232.800 C 236.998 232.800,237.249 232.724,236.655 232.290 C 236.091 231.877,235.980 231.284,236.079 229.190 L 236.200 226.600 238.373 229.700 C 241.102 233.592,241.200 233.575,241.200 229.200 C 241.200 224.916,240.487 224.323,240.318 228.466 L 240.200 231.332 238.297 228.466 C 235.755 224.638,235.367 224.717,235.530 229.031 C 235.714 233.878,234.472 233.877,232.597 229.028 C 231.451 226.065,230.400 224.701,230.400 226.178 M243.604 226.195 C 242.762 227.210,243.448 228.610,245.168 229.385 C 246.915 230.173,247.455 231.011,246.758 231.851 C 246.107 232.635,244.118 232.540,243.650 231.703 C 243.435 231.320,243.131 231.136,242.973 231.294 C 242.427 231.839,243.703 232.800,244.973 232.800 C 247.985 232.800,248.513 230.444,245.836 228.946 C 243.856 227.838,243.396 227.062,244.226 226.231 C 244.573 225.884,244.686 225.600,244.478 225.600 C 244.269 225.600,243.876 225.868,243.604 226.195 M246.538 226.580 C 246.814 227.167,247.146 227.414,247.363 227.197 C 247.580 226.980,247.521 226.586,247.214 226.217 C 246.426 225.268,246.021 225.485,246.538 226.580 M249.532 228.856 C 249.629 231.247,249.523 232.203,249.132 232.450 C 248.785 232.670,249.088 232.786,250.000 232.782 C 251.144 232.777,251.272 232.701,250.700 232.368 C 249.209 231.500,249.771 229.058,251.400 229.323 C 252.170 229.447,252.800 229.381,252.800 229.175 C 252.800 228.969,252.159 228.800,251.375 228.800 C 250.008 228.800,249.954 228.747,250.075 227.500 C 250.212 226.077,252.529 225.314,253.236 226.459 C 253.412 226.744,253.674 226.859,253.818 226.715 C 254.439 226.094,253.402 225.600,251.476 225.599 L 249.400 225.598 249.532 228.856 M259.700 226.723 C 260.629 227.521,260.653 230.657,259.738 231.669 C 257.942 233.653,255.200 232.025,255.200 228.973 C 255.200 226.086,257.575 224.898,259.700 226.723 M270.691 228.855 C 270.549 230.924,270.273 232.234,269.934 232.449 C 269.560 232.687,269.699 232.790,270.400 232.794 C 271.353 232.800,271.394 232.707,271.260 230.785 C 270.969 226.574,271.525 226.239,272.985 229.747 C 274.445 233.254,274.410 233.260,276.059 229.204 L 277.118 226.600 277.402 228.091 C 277.558 228.911,277.617 230.306,277.532 231.191 C 277.384 232.743,277.421 232.800,278.566 232.800 C 279.609 232.800,279.671 232.739,279.079 232.300 C 278.565 231.920,278.380 231.060,278.302 228.704 C 278.161 224.419,277.373 224.477,275.619 228.900 C 274.475 231.785,274.438 231.777,273.069 228.395 C 271.549 224.642,270.972 224.753,270.691 228.855 M231.982 229.500 C 231.993 229.793,231.503 230.000,230.800 230.000 C 229.391 230.000,229.403 230.041,230.294 228.172 L 230.988 226.716 231.476 227.858 C 231.744 228.486,231.972 229.225,231.982 229.500 " stroke="none" fill="#f4690c" fill-rule="evenodd"></path><path id="path1" d="M3.200 201.600 L 3.200 400.000 201.600 400.000 L 400.000 400.000 400.000 201.600 L 400.000 3.200 201.600 3.200 L 3.200 3.200 3.200 201.600 M153.110 177.010 C 154.241 177.346,155.267 177.785,155.391 177.985 C 155.818 178.677,153.479 182.840,152.812 182.575 C 150.331 181.590,148.650 182.143,148.179 184.100 L 147.913 185.200 150.557 185.200 L 153.200 185.200 153.200 188.000 L 153.200 190.800 150.600 190.800 L 148.000 190.800 148.000 199.800 L 148.000 208.800 144.800 208.800 L 141.600 208.800 141.600 199.800 L 141.600 190.800 140.000 190.800 L 138.400 190.800 138.400 188.000 L 138.400 185.200 140.000 185.200 C 141.581 185.200,141.600 185.182,141.609 183.700 C 141.641 178.182,146.851 175.152,153.110 177.010 M313.796 177.425 L 315.172 178.078 313.985 180.429 C 312.863 182.653,312.743 182.759,311.773 182.390 C 309.646 181.581,307.600 182.567,307.600 184.400 C 307.600 185.118,307.867 185.200,310.200 185.200 L 312.800 185.200 312.800 188.000 L 312.800 190.800 310.200 190.800 L 307.600 190.800 307.600 199.800 L 307.600 208.800 304.400 208.800 L 301.200 208.800 301.200 199.800 L 301.200 190.800 299.600 190.800 L 298.000 190.800 298.000 188.000 L 298.000 185.200 299.600 185.200 L 301.200 185.200 301.200 183.560 C 301.200 177.894,307.903 174.629,313.796 177.425 M124.400 192.816 L 124.400 208.832 121.100 208.716 L 117.800 208.600 117.695 193.201 C 117.571 174.984,117.184 176.800,121.187 176.800 L 124.400 176.800 124.400 192.816 M135.400 179.800 L 135.400 182.600 132.100 182.716 L 128.800 182.832 128.800 179.800 L 128.800 176.768 132.100 176.884 L 135.400 177.000 135.400 179.800 M240.000 179.800 L 240.000 182.800 236.800 182.800 L 233.600 182.800 233.600 179.800 L 233.600 176.800 236.800 176.800 L 240.000 176.800 240.000 179.800 M324.800 179.800 L 324.800 182.800 321.600 182.800 L 318.400 182.800 318.400 179.800 L 318.400 176.800 321.600 176.800 L 324.800 176.800 324.800 179.800 M87.523 178.086 C 87.610 178.544,87.312 178.857,86.627 179.029 C 85.549 179.300,85.206 180.000,86.151 180.000 C 86.454 180.000,86.943 180.291,87.238 180.646 C 87.993 181.556,86.072 183.200,84.254 183.200 C 81.227 183.200,80.810 181.114,83.638 180.123 C 84.387 179.860,84.719 179.635,84.376 179.623 C 82.978 179.572,82.239 178.618,83.004 177.853 C 83.951 176.907,87.332 177.081,87.523 178.086 M92.616 177.873 C 93.246 178.504,93.242 178.581,92.544 179.101 C 91.171 180.126,87.416 178.869,88.176 177.638 C 88.611 176.935,91.849 177.106,92.616 177.873 M93.111 180.623 C 94.205 181.389,94.251 182.238,93.226 182.786 C 90.934 184.012,87.068 182.205,88.442 180.549 C 89.059 179.806,92.011 179.852,93.111 180.623 M280.400 182.600 L 280.400 185.200 282.800 185.200 L 285.200 185.200 285.200 188.000 L 285.200 190.800 282.800 190.800 L 280.400 190.800 280.400 196.551 C 280.400 203.251,280.495 203.450,283.517 203.049 L 285.429 202.795 285.307 205.479 C 285.172 208.441,285.036 208.614,282.534 208.989 C 275.608 210.028,273.600 207.194,273.600 196.380 L 273.600 190.800 272.000 190.800 L 270.400 190.800 270.400 188.000 L 270.400 185.200 272.000 185.200 L 273.600 185.200 273.600 182.600 L 273.600 180.000 277.000 180.000 L 280.400 180.000 280.400 182.600 M338.400 182.600 L 338.400 185.200 340.800 185.200 L 343.200 185.200 343.200 188.000 L 343.200 190.800 340.800 190.800 L 338.400 190.800 338.400 196.551 C 338.400 203.211,338.514 203.458,341.406 203.061 L 343.200 202.815 343.200 205.600 C 343.200 208.861,342.999 209.001,338.327 208.998 C 332.940 208.995,331.849 207.145,331.667 197.700 L 331.534 190.800 329.967 190.800 L 328.400 190.800 328.400 188.000 L 328.400 185.200 330.000 185.200 L 331.600 185.200 331.600 182.600 L 331.600 180.000 335.000 180.000 L 338.400 180.000 338.400 182.600 M80.567 180.643 C 82.266 181.295,80.154 184.000,77.946 184.000 C 76.240 184.000,76.335 182.272,78.100 181.196 C 79.536 180.320,79.656 180.293,80.567 180.643 M97.526 181.212 C 99.168 182.213,99.197 183.730,97.578 183.919 C 96.364 184.060,94.400 182.651,94.400 181.638 C 94.400 180.160,95.546 180.004,97.526 181.212 M76.328 182.526 C 76.398 182.889,75.948 183.665,75.328 184.249 C 74.592 184.943,74.374 185.374,74.700 185.489 C 75.524 185.781,75.266 187.879,74.263 189.045 C 73.068 190.434,72.000 190.127,72.000 188.394 C 72.000 187.621,72.365 186.799,72.982 186.182 C 73.522 185.642,73.811 185.200,73.625 185.200 C 72.689 185.200,72.898 183.841,74.002 182.736 C 75.257 181.482,76.110 181.405,76.328 182.526 M101.630 182.769 C 102.706 183.845,102.899 185.200,101.975 185.200 C 101.789 185.200,102.078 185.642,102.618 186.182 C 103.635 187.198,103.966 189.327,103.182 189.811 C 102.590 190.177,100.912 188.983,100.589 187.966 C 100.319 187.114,100.316 187.114,99.849 188.056 C 98.788 190.192,95.032 188.376,95.279 185.846 C 95.451 184.077,97.157 183.896,98.740 185.478 C 99.869 186.608,99.873 186.608,100.494 185.785 C 101.070 185.021,101.046 184.892,100.158 184.038 C 99.201 183.117,98.963 182.370,99.467 181.867 C 99.953 181.381,100.449 181.588,101.630 182.769 M86.173 184.061 C 87.620 184.720,87.859 185.872,86.788 187.013 C 84.455 189.496,79.594 187.920,81.276 185.227 C 82.165 183.804,84.427 183.265,86.173 184.061 M93.900 184.913 C 95.042 185.962,95.046 186.983,93.911 187.777 C 92.234 188.952,89.257 188.322,88.487 186.630 C 87.315 184.060,91.519 182.726,93.900 184.913 M80.321 185.846 C 80.524 187.930,77.404 190.044,76.080 188.720 C 75.282 187.922,75.534 186.804,76.796 185.542 C 78.441 183.897,80.146 184.044,80.321 185.846 M175.070 185.988 C 179.619 187.998,182.791 193.888,181.787 198.461 L 181.536 199.600 173.146 199.600 L 164.755 199.600 165.469 200.808 C 167.044 203.475,171.848 204.332,175.370 202.575 C 176.553 201.985,176.589 202.000,178.384 203.815 L 180.200 205.652 178.800 206.842 C 173.407 211.425,162.540 209.053,159.385 202.606 C 154.380 192.376,164.723 181.418,175.070 185.988 M203.070 185.988 C 211.907 189.892,212.406 203.400,203.874 207.764 C 199.956 209.767,195.098 209.498,192.746 207.146 C 192.018 206.418,192.000 206.529,192.000 211.800 L 192.000 217.200 188.800 217.200 L 185.600 217.200 185.600 201.200 L 185.600 185.200 188.800 185.200 L 192.000 185.200 192.000 186.470 L 192.000 187.739 192.962 186.836 C 195.258 184.678,199.331 184.337,203.070 185.988 M229.911 188.200 L 230.023 191.400 227.958 191.475 C 222.439 191.677,220.400 194.803,220.400 203.063 L 220.400 208.800 217.000 208.800 L 213.600 208.800 213.600 197.000 L 213.600 185.200 217.000 185.200 L 220.400 185.200 220.401 187.700 L 220.403 190.200 221.148 189.000 C 222.765 186.397,225.969 184.688,228.800 184.918 C 229.766 184.997,229.804 185.108,229.911 188.200 M261.034 185.388 C 266.069 186.883,267.200 189.684,267.200 200.650 L 267.200 208.800 264.000 208.800 L 260.800 208.800 260.777 201.700 C 260.747 192.145,260.067 190.501,256.331 190.942 C 252.177 191.433,251.200 193.524,251.200 201.925 L 251.200 208.800 247.800 208.800 L 244.400 208.800 244.400 197.000 L 244.400 185.200 247.800 185.200 L 251.200 185.200 251.209 187.100 C 251.218 188.945,251.238 188.977,251.909 188.193 C 253.253 186.623,254.421 185.871,256.300 185.365 C 258.767 184.701,258.722 184.701,261.034 185.388 M135.600 197.000 L 135.600 208.800 132.200 208.800 L 128.800 208.800 128.800 197.000 L 128.800 185.200 132.200 185.200 L 135.600 185.200 135.600 197.000 M240.000 197.000 L 240.000 208.800 236.800 208.800 L 233.600 208.800 233.600 197.000 L 233.600 185.200 236.800 185.200 L 240.000 185.200 240.000 197.000 M324.800 197.000 L 324.800 208.800 321.600 208.800 L 318.400 208.800 318.400 197.000 L 318.400 185.200 321.600 185.200 L 324.800 185.200 324.800 197.000 M86.269 190.125 C 88.420 192.291,86.910 196.000,83.877 196.000 C 82.006 196.000,80.400 194.479,80.400 192.708 C 80.400 189.323,83.930 187.769,86.269 190.125 M94.300 190.262 C 97.224 193.455,92.443 198.079,89.382 195.018 C 86.938 192.574,89.061 188.392,92.400 189.075 C 92.950 189.187,93.805 189.722,94.300 190.262 M78.971 190.229 C 80.409 191.666,79.575 195.390,77.711 195.858 C 75.448 196.426,74.296 192.858,76.029 190.654 C 76.968 189.460,78.047 189.304,78.971 190.229 M99.565 190.454 C 101.052 192.051,100.957 195.258,99.405 195.853 C 98.351 196.258,96.955 195.657,96.469 194.591 C 94.991 191.347,97.399 188.129,99.565 190.454 M74.157 191.033 C 74.926 193.036,73.984 196.000,72.579 196.000 C 71.570 196.000,71.200 195.317,71.200 193.456 C 71.200 191.150,73.484 189.279,74.157 191.033 M103.790 191.580 C 104.830 193.591,104.497 196.000,103.180 196.000 C 101.702 196.000,100.670 193.047,101.443 191.033 C 101.839 190.001,103.129 190.302,103.790 191.580 M167.319 191.584 C 166.615 192.013,165.755 192.913,165.409 193.582 L 164.779 194.800 170.190 194.800 C 175.886 194.800,176.234 194.672,174.994 193.032 C 173.280 190.767,169.751 190.101,167.319 191.584 M194.825 191.531 C 190.844 193.666,191.022 200.964,195.097 202.666 C 199.156 204.362,203.616 201.492,203.591 197.200 C 203.563 192.475,198.803 189.397,194.825 191.531 M70.726 192.934 C 70.886 194.873,69.837 196.695,68.973 195.978 C 67.822 195.023,68.669 191.041,69.971 191.288 C 70.384 191.366,70.643 191.932,70.726 192.934 M106.736 192.219 C 107.368 193.606,107.320 195.402,106.636 195.970 C 105.500 196.913,104.294 193.783,105.043 191.833 C 105.406 190.885,106.212 191.069,106.736 192.219 M70.409 197.617 C 71.131 198.967,70.749 201.400,69.815 201.400 C 69.276 201.400,68.916 201.001,68.665 200.127 C 67.949 197.629,69.342 195.624,70.409 197.617 M73.777 197.689 C 74.592 198.852,74.593 201.742,73.778 202.418 C 72.867 203.174,71.598 201.753,71.318 199.663 C 70.969 197.065,72.487 195.847,73.777 197.689 M78.618 197.782 C 80.802 199.966,79.220 204.495,76.737 203.166 C 74.927 202.197,74.478 199.129,75.909 197.500 C 76.747 196.547,77.457 196.620,78.618 197.782 M86.269 198.125 C 88.414 200.285,86.850 204.000,83.796 204.000 C 80.905 204.000,79.215 200.018,81.300 198.121 C 83.003 196.571,84.728 196.573,86.269 198.125 M94.300 198.099 C 96.410 200.069,94.696 204.000,91.727 204.000 C 88.832 204.000,87.217 200.417,89.137 198.253 C 90.585 196.621,92.650 196.559,94.300 198.099 M99.647 197.647 C 100.764 198.764,100.517 201.814,99.223 202.861 L 98.368 203.554 99.184 203.991 C 100.677 204.790,99.346 208.336,97.519 208.425 C 97.234 208.439,97.405 208.613,97.900 208.812 C 99.738 209.551,98.046 212.400,95.770 212.400 C 94.009 212.400,94.031 210.547,95.802 209.599 C 96.774 209.079,96.777 209.060,95.996 208.512 C 94.581 207.521,95.155 205.268,97.081 204.259 L 98.141 203.704 97.251 203.228 C 95.326 202.197,95.366 198.770,97.320 197.401 C 98.438 196.618,98.639 196.639,99.647 197.647 M103.986 197.574 C 105.212 199.866,103.405 203.732,101.749 202.358 C 101.445 202.105,101.200 201.161,101.200 200.240 C 101.200 197.503,103.017 195.764,103.986 197.574 M107.126 198.534 C 107.286 200.473,106.237 202.295,105.373 201.578 C 104.700 201.019,104.616 198.692,105.227 197.550 C 105.927 196.242,106.982 196.789,107.126 198.534 M294.542 202.581 C 297.482 205.306,294.333 210.186,290.632 208.639 C 289.009 207.961,288.400 206.971,288.400 205.008 C 288.400 201.901,292.191 200.403,294.542 202.581 M74.766 204.440 C 75.476 205.607,75.536 205.631,75.787 204.840 C 76.168 203.639,78.153 203.717,79.418 204.982 C 80.683 206.247,80.761 208.232,79.560 208.613 C 78.772 208.863,78.799 208.928,79.986 209.650 C 81.572 210.614,81.567 212.134,79.978 212.319 C 77.784 212.575,75.729 209.594,77.674 208.977 C 78.536 208.703,78.534 208.692,77.501 208.151 C 76.926 207.850,76.327 207.200,76.171 206.708 L 75.887 205.813 75.556 206.707 C 74.830 208.670,72.000 206.792,72.000 204.346 C 72.000 202.671,73.726 202.730,74.766 204.440 M103.600 204.378 C 103.600 205.865,101.989 207.835,101.063 207.480 C 99.508 206.883,100.870 203.200,102.646 203.200 C 103.435 203.200,103.600 203.403,103.600 204.378 M85.353 204.782 C 86.572 205.246,87.704 206.863,87.387 207.689 C 86.851 209.086,84.270 209.567,82.429 208.615 C 79.088 206.888,81.742 203.409,85.353 204.782 M94.174 205.571 C 95.588 207.133,93.707 209.280,90.925 209.280 C 89.498 209.280,88.000 208.183,88.000 207.138 C 88.000 205.163,92.720 203.965,94.174 205.571 M75.474 208.870 C 76.613 209.939,76.700 211.200,75.636 211.200 C 74.771 211.200,72.674 208.927,73.021 208.366 C 73.409 207.738,74.510 207.963,75.474 208.870 M102.579 208.366 C 102.926 208.927,100.829 211.200,99.964 211.200 C 98.969 211.200,98.994 210.370,100.029 209.054 C 100.851 208.010,102.143 207.661,102.579 208.366 M85.764 210.159 C 89.093 211.550,86.964 213.976,83.437 212.812 C 81.353 212.124,81.108 210.737,82.941 209.997 C 84.126 209.519,84.249 209.526,85.764 210.159 M93.256 210.376 L 94.200 211.151 93.359 212.006 C 92.298 213.083,89.677 213.469,88.649 212.699 C 87.256 211.655,89.144 209.851,91.856 209.636 C 92.106 209.616,92.736 209.949,93.256 210.376 M86.826 214.014 C 87.844 214.559,87.813 215.479,86.765 215.811 C 84.919 216.397,81.916 215.107,82.589 214.018 C 82.922 213.479,85.822 213.477,86.826 214.014 M92.933 214.171 C 93.201 214.868,92.555 215.445,91.098 215.811 C 88.782 216.392,86.964 215.043,88.700 214.032 C 89.778 213.404,92.676 213.499,92.933 214.171 M156.712 229.933 C 156.808 234.085,156.735 234.800,156.212 234.800 C 155.695 234.800,155.600 234.019,155.600 229.767 C 155.600 222.723,156.549 222.865,156.712 229.933 M210.712 229.933 C 210.808 234.085,210.735 234.800,210.212 234.800 C 209.695 234.800,209.600 234.019,209.600 229.767 C 209.600 222.723,210.549 222.865,210.712 229.933 M122.814 225.817 C 123.217 226.302,123.222 226.537,122.838 226.917 C 122.456 227.295,122.264 227.248,121.955 226.700 C 121.227 225.410,119.200 225.778,119.200 227.200 C 119.200 228.176,119.368 228.401,120.100 228.406 C 120.595 228.409,121.248 228.569,121.551 228.761 C 122.458 229.336,121.670 229.994,120.384 229.737 C 118.958 229.452,118.488 232.155,119.900 232.524 C 120.285 232.625,119.790 232.714,118.800 232.722 C 117.810 232.730,117.225 232.646,117.500 232.535 C 118.138 232.278,118.211 226.000,117.576 226.000 C 117.343 226.000,117.264 225.820,117.400 225.600 C 117.813 224.932,122.227 225.109,122.814 225.817 M129.281 226.419 C 130.380 227.519,130.479 227.821,130.290 229.503 C 129.825 233.629,125.288 234.426,123.468 230.702 C 121.510 226.695,126.143 223.281,129.281 226.419 M136.720 225.680 C 137.301 226.261,137.357 227.600,136.800 227.600 C 136.580 227.600,136.400 227.333,136.400 227.008 C 136.400 226.089,134.546 225.812,133.403 226.561 C 130.469 228.484,132.687 233.598,135.704 231.866 C 136.994 231.126,137.433 231.215,137.076 232.145 C 136.053 234.811,130.766 232.257,130.814 229.120 C 130.857 226.329,134.972 223.932,136.720 225.680 M140.400 225.600 C 140.400 225.820,140.220 226.000,140.000 226.000 C 139.487 226.000,139.479 229.630,139.990 230.974 C 140.490 232.288,142.101 232.362,142.977 231.111 C 143.670 230.122,143.830 226.590,143.200 226.200 C 142.412 225.713,142.822 225.200,144.000 225.200 C 144.660 225.200,145.200 225.380,145.200 225.600 C 145.200 225.820,145.020 226.000,144.800 226.000 C 144.032 226.000,144.310 231.908,145.100 232.368 C 145.698 232.717,145.640 232.777,144.700 232.788 C 144.095 232.795,143.600 232.631,143.600 232.424 C 143.600 232.217,143.126 232.293,142.547 232.594 C 140.152 233.836,138.815 232.445,138.806 228.700 C 138.803 227.171,138.627 226.000,138.400 226.000 C 138.180 226.000,138.000 225.820,138.000 225.600 C 138.000 225.380,138.540 225.200,139.200 225.200 C 139.860 225.200,140.400 225.380,140.400 225.600 M150.026 225.614 C 150.452 225.842,150.800 226.382,150.800 226.814 C 150.800 227.848,150.125 227.823,149.793 226.777 C 149.600 226.168,149.253 225.986,148.466 226.077 C 146.819 226.267,147.075 227.593,148.964 228.652 C 152.544 230.660,150.900 234.283,147.069 232.826 C 146.037 232.434,145.497 230.800,146.400 230.800 C 146.620 230.800,146.800 230.974,146.800 231.186 C 146.800 231.811,148.365 232.465,149.215 232.195 C 150.547 231.773,150.150 230.493,148.413 229.607 C 146.506 228.634,145.797 227.527,146.381 226.435 C 147.036 225.213,148.612 224.857,150.026 225.614 M163.600 225.600 C 163.600 225.820,163.420 226.000,163.200 226.000 C 162.587 226.000,162.683 232.286,163.300 232.535 C 163.575 232.646,163.080 232.748,162.200 232.762 C 161.160 232.779,160.790 232.667,161.143 232.444 C 161.551 232.185,161.651 231.243,161.543 228.650 L 161.400 225.200 162.500 225.200 C 163.105 225.200,163.600 225.380,163.600 225.600 M165.795 225.453 C 166.158 225.593,167.252 226.896,168.227 228.349 L 170.000 230.991 170.000 228.496 C 170.000 227.099,169.824 226.000,169.600 226.000 C 169.380 226.000,169.200 225.820,169.200 225.600 C 169.200 225.380,169.740 225.200,170.400 225.200 C 171.060 225.200,171.600 225.380,171.600 225.600 C 171.600 225.820,171.405 226.000,171.166 226.000 C 170.879 226.000,170.772 227.150,170.850 229.397 C 170.996 233.644,170.724 233.710,168.108 230.056 L 166.000 227.112 166.000 229.536 C 166.000 231.423,166.155 232.051,166.700 232.368 C 167.262 232.695,167.088 232.778,165.820 232.788 C 164.591 232.797,164.347 232.693,164.720 232.320 C 165.308 231.732,165.381 226.000,164.800 226.000 C 164.580 226.000,164.400 225.820,164.400 225.600 C 164.400 225.140,164.853 225.092,165.795 225.453 M177.971 225.785 C 179.960 226.814,180.309 230.128,178.607 231.830 L 177.614 232.823 178.813 233.063 C 179.754 233.251,179.918 233.417,179.572 233.834 C 179.206 234.274,178.861 234.258,177.566 233.740 C 176.706 233.395,175.731 233.218,175.401 233.344 C 175.034 233.485,174.800 233.346,174.800 232.987 C 174.800 232.664,174.665 232.421,174.500 232.447 C 173.690 232.575,173.289 232.314,172.864 231.381 C 171.111 227.534,174.395 223.936,177.971 225.785 M182.800 225.600 C 182.800 225.820,182.620 226.000,182.400 226.000 C 181.872 226.000,181.884 230.235,182.414 231.226 C 183.744 233.712,185.738 231.652,185.532 228.004 L 185.374 225.200 186.487 225.200 C 187.099 225.200,187.600 225.380,187.600 225.600 C 187.600 225.820,187.420 226.000,187.200 226.000 C 186.587 226.000,186.683 232.286,187.300 232.535 C 187.575 232.646,187.395 232.751,186.900 232.768 C 186.405 232.786,186.000 232.629,186.000 232.420 C 186.000 232.211,185.416 232.278,184.700 232.568 C 182.183 233.590,181.200 232.509,181.200 228.724 C 181.200 227.175,181.028 226.000,180.800 226.000 C 180.580 226.000,180.400 225.820,180.400 225.600 C 180.400 225.380,180.940 225.200,181.600 225.200 C 182.260 225.200,182.800 225.380,182.800 225.600 M190.457 228.650 C 190.349 231.243,190.449 232.185,190.857 232.444 C 191.210 232.667,190.840 232.779,189.800 232.762 C 188.920 232.748,188.425 232.646,188.700 232.535 C 189.317 232.286,189.413 226.000,188.800 226.000 C 188.580 226.000,188.400 225.820,188.400 225.600 C 188.400 225.380,188.895 225.200,189.500 225.200 L 190.600 225.200 190.457 228.650 M196.800 226.000 C 197.760 226.960,197.800 227.536,196.987 228.698 C 196.421 229.506,196.451 229.697,197.379 231.168 C 198.365 232.729,198.156 233.862,197.124 232.553 C 196.836 232.187,196.015 231.296,195.300 230.571 C 193.938 229.191,193.658 228.611,194.500 228.913 C 195.274 229.190,196.400 228.451,196.400 227.666 C 196.400 226.693,195.618 226.000,194.520 226.000 C 193.443 226.000,193.051 232.112,194.100 232.535 C 194.375 232.646,193.880 232.737,193.000 232.737 C 192.120 232.737,191.625 232.646,191.900 232.535 C 192.517 232.286,192.613 226.000,192.000 226.000 C 191.780 226.000,191.600 225.820,191.600 225.600 C 191.600 224.805,195.938 225.138,196.800 226.000 M204.358 225.566 C 204.708 225.787,204.809 226.196,204.630 226.660 C 204.352 227.375,204.325 227.376,203.806 226.670 C 202.946 225.503,201.033 225.913,200.873 227.300 C 200.765 228.241,200.892 228.400,201.750 228.400 C 202.886 228.400,203.489 229.071,202.890 229.670 C 202.624 229.936,202.401 229.925,202.222 229.635 C 201.615 228.653,200.800 229.207,200.800 230.600 C 200.800 232.084,202.752 232.688,203.885 231.555 C 204.550 230.890,205.367 231.517,204.770 232.236 C 204.445 232.627,203.430 232.796,201.451 232.788 C 199.319 232.779,198.777 232.673,199.300 232.368 C 200.090 231.908,200.368 226.000,199.600 226.000 C 199.380 226.000,199.200 225.820,199.200 225.600 C 199.200 225.107,203.587 225.078,204.358 225.566 M226.017 226.017 C 226.957 226.957,226.997 227.541,226.197 228.683 C 225.663 229.445,226.621 232.400,227.402 232.400 C 227.728 232.400,230.080 226.887,230.089 226.100 C 230.120 223.558,231.532 225.449,233.373 230.500 C 234.476 233.524,235.200 233.009,235.200 229.200 C 235.200 226.978,235.053 226.000,234.720 226.000 C 234.371 226.000,234.360 225.880,234.680 225.560 C 235.501 224.739,236.721 225.623,238.463 228.302 L 240.200 230.973 240.323 228.594 C 240.396 227.171,240.276 226.159,240.023 226.074 C 239.137 225.779,239.652 225.200,240.800 225.200 C 241.460 225.200,242.000 225.380,242.000 225.600 C 242.000 225.820,241.809 226.000,241.575 226.000 C 241.302 226.000,241.180 227.245,241.235 229.500 C 241.281 231.425,241.198 232.969,241.049 232.930 C 240.340 232.746,240.046 232.427,238.383 230.035 L 236.600 227.471 236.478 229.798 C 236.395 231.389,236.522 232.231,236.878 232.457 C 237.182 232.650,236.231 232.788,234.600 232.788 C 233.060 232.788,232.018 232.649,232.285 232.480 C 233.394 231.775,232.381 230.400,230.753 230.400 C 229.177 230.400,229.172 230.406,229.038 232.400 C 228.955 233.632,226.685 233.079,225.676 231.581 C 225.165 230.821,224.398 230.071,223.973 229.913 C 223.548 229.755,223.200 229.425,223.200 229.180 C 223.200 228.934,223.425 228.814,223.700 228.913 C 224.474 229.190,225.600 228.451,225.600 227.666 C 225.600 226.693,224.818 226.000,223.720 226.000 C 222.643 226.000,222.251 232.112,223.300 232.535 C 223.575 232.646,223.080 232.737,222.200 232.737 C 221.320 232.737,220.825 232.646,221.100 232.535 C 221.728 232.282,221.812 226.000,221.187 226.000 C 220.961 226.000,220.664 226.290,220.528 226.644 C 220.301 227.235,220.252 227.235,219.921 226.644 C 219.722 226.290,219.209 226.000,218.780 226.000 C 217.666 226.000,217.594 231.724,218.700 232.368 C 219.250 232.688,219.014 232.776,217.600 232.776 C 216.186 232.776,215.950 232.688,216.500 232.368 C 217.068 232.037,217.200 231.396,217.200 228.980 C 217.200 225.913,217.025 225.637,215.574 226.414 C 214.807 226.825,214.416 226.118,215.056 225.478 C 215.766 224.767,225.233 225.233,226.017 226.017 M246.826 225.614 C 247.252 225.842,247.600 226.382,247.600 226.814 C 247.600 227.832,247.127 227.815,246.477 226.775 C 245.861 225.789,244.272 225.867,244.076 226.893 C 243.987 227.360,244.539 227.945,245.765 228.686 C 247.709 229.860,248.150 230.496,247.796 231.613 C 247.212 233.454,243.142 233.500,242.872 231.669 C 242.713 230.585,242.975 230.575,244.025 231.625 C 244.979 232.579,245.925 232.517,246.557 231.459 C 246.913 230.863,246.853 230.627,246.252 230.259 C 242.609 228.026,242.208 227.392,243.575 226.025 C 244.480 225.120,245.631 224.975,246.826 225.614 M253.928 226.300 C 254.071 227.306,253.413 227.532,253.055 226.600 C 252.921 226.249,252.321 226.000,251.613 226.000 C 249.872 226.000,249.765 228.274,251.497 228.473 C 252.155 228.549,252.646 228.878,252.725 229.296 C 252.835 229.874,252.650 229.950,251.629 229.746 C 250.164 229.453,249.652 232.146,251.100 232.524 C 251.485 232.625,250.990 232.714,250.000 232.722 C 249.010 232.730,248.425 232.646,248.700 232.535 C 249.317 232.286,249.413 226.000,248.800 226.000 C 248.580 226.000,248.400 225.812,248.400 225.582 C 248.400 224.619,253.788 225.319,253.928 226.300 M260.131 226.017 C 262.192 227.638,261.866 231.428,259.564 232.619 C 257.960 233.448,257.032 233.343,255.644 232.176 C 251.758 228.906,256.146 222.883,260.131 226.017 M267.200 226.000 C 268.162 226.962,268.219 227.895,267.372 228.831 C 266.796 229.467,266.832 229.667,267.800 231.201 C 268.382 232.122,268.756 232.977,268.631 233.102 C 268.308 233.425,266.866 232.038,266.576 231.124 C 266.442 230.701,265.897 230.189,265.366 229.987 C 264.404 229.621,263.949 228.571,264.900 228.913 C 265.674 229.190,266.800 228.451,266.800 227.666 C 266.800 226.693,266.018 226.000,264.920 226.000 C 263.843 226.000,263.451 232.112,264.500 232.535 C 264.775 232.646,264.280 232.737,263.400 232.737 C 262.520 232.737,262.025 232.646,262.300 232.535 C 262.917 232.286,263.013 226.000,262.400 226.000 C 262.180 226.000,262.000 225.820,262.000 225.600 C 262.000 224.805,266.338 225.138,267.200 226.000 M273.029 227.896 C 274.655 231.197,274.560 231.180,275.609 228.376 C 276.583 225.771,277.948 224.588,278.891 225.531 C 279.250 225.890,279.203 226.000,278.690 226.000 C 278.184 226.000,278.062 226.270,278.190 227.100 C 278.284 227.705,278.461 229.090,278.584 230.178 C 278.706 231.266,279.030 232.299,279.303 232.472 C 279.608 232.666,279.318 232.790,278.555 232.794 C 277.484 232.799,277.333 232.675,277.467 231.900 C 277.553 231.405,277.481 230.208,277.307 229.239 L 276.991 227.478 275.942 230.039 C 274.925 232.520,273.606 233.695,273.595 232.129 C 273.592 231.728,273.171 230.500,272.659 229.400 L 271.727 227.400 271.428 229.754 C 271.201 231.543,271.257 232.190,271.664 232.448 C 272.011 232.668,271.643 232.790,270.624 232.794 C 269.294 232.799,269.146 232.722,269.676 232.300 C 270.413 231.714,271.072 226.000,270.403 226.000 C 270.181 226.000,270.000 225.807,270.000 225.572 C 270.000 224.143,271.898 225.599,273.029 227.896 M124.971 226.832 C 123.301 228.677,124.507 232.400,126.775 232.400 C 127.953 232.400,129.200 230.690,129.200 229.074 C 129.200 226.401,126.606 225.026,124.971 226.832 M174.421 226.703 C 173.294 227.615,173.175 230.467,174.215 231.616 C 175.860 233.434,178.509 231.984,178.509 229.264 C 178.509 226.404,176.412 225.090,174.421 226.703 M256.560 226.306 C 254.387 227.757,255.332 232.400,257.800 232.400 C 258.973 232.400,260.400 230.544,260.400 229.018 C 260.400 226.785,258.185 225.221,256.560 226.306 M230.474 228.197 C 229.894 229.470,230.016 229.717,231.131 229.532 C 231.848 229.414,231.881 229.282,231.454 228.246 L 230.978 227.091 230.474 228.197 " stroke="none" fill="#fcfcfb" fill-rule="evenodd"></path><path id="path2" d="M128.931 179.800 C 128.933 181.340,129.005 181.921,129.092 181.091 C 129.179 180.261,129.177 179.001,129.089 178.291 C 129.000 177.581,128.929 178.260,128.931 179.800 M280.173 182.800 L 280.200 185.400 282.600 185.429 L 285.000 185.457 282.718 185.310 L 280.436 185.163 280.290 182.681 L 280.145 180.200 280.173 182.800 M331.676 182.476 L 331.600 185.152 330.100 185.276 L 328.600 185.400 328.570 188.102 L 328.541 190.803 328.689 188.202 L 328.837 185.600 330.231 185.600 C 331.910 185.600,332.088 185.233,331.897 182.155 L 331.751 179.800 331.676 182.476 M169.700 185.076 C 170.085 185.176,170.715 185.176,171.100 185.076 C 171.485 184.975,171.170 184.893,170.400 184.893 C 169.630 184.893,169.315 184.975,169.700 185.076 M128.981 185.705 C 128.874 185.983,128.838 191.248,128.900 197.405 L 129.013 208.600 129.107 197.117 L 129.200 185.634 132.300 185.497 L 135.400 185.361 132.287 185.280 C 130.087 185.224,129.118 185.348,128.981 185.705 M138.565 185.748 C 138.449 186.049,138.421 187.264,138.503 188.448 L 138.652 190.600 138.726 188.124 L 138.800 185.648 140.300 185.491 L 141.800 185.334 140.287 185.267 C 139.325 185.224,138.698 185.399,138.565 185.748 M149.091 185.489 C 149.801 185.577,151.061 185.579,151.891 185.492 C 152.721 185.405,152.140 185.333,150.600 185.331 C 149.060 185.329,148.381 185.400,149.091 185.489 M187.100 185.493 C 188.035 185.577,189.565 185.577,190.500 185.493 C 191.435 185.409,190.670 185.340,188.800 185.340 C 186.930 185.340,186.165 185.409,187.100 185.493 M213.787 185.688 C 213.677 185.976,213.638 191.248,213.700 197.405 L 213.813 208.600 213.907 197.100 L 214.000 185.600 217.000 185.600 L 220.000 185.600 220.000 188.224 C 220.000 189.667,220.136 190.763,220.302 190.661 C 220.468 190.558,220.513 189.332,220.402 187.937 L 220.200 185.400 217.094 185.283 C 214.821 185.197,213.934 185.306,213.787 185.688 M235.100 185.493 C 236.035 185.577,237.565 185.577,238.500 185.493 C 239.435 185.409,238.670 185.340,236.800 185.340 C 234.930 185.340,234.165 185.409,235.100 185.493 M247.799 185.490 L 250.800 185.634 250.800 187.640 C 250.800 188.744,250.945 189.558,251.121 189.449 C 251.298 189.340,251.343 188.384,251.221 187.325 L 251.000 185.400 247.899 185.373 L 244.797 185.346 247.799 185.490 M270.565 185.748 C 270.449 186.049,270.421 187.264,270.503 188.448 L 270.652 190.600 270.726 188.123 L 270.800 185.646 272.500 185.493 L 274.200 185.340 272.487 185.270 C 271.355 185.224,270.704 185.385,270.565 185.748 M299.105 185.483 C 299.602 185.579,300.322 185.575,300.705 185.475 C 301.087 185.375,300.680 185.296,299.800 185.301 C 298.920 185.305,298.607 185.387,299.105 185.483 M308.700 185.489 C 309.415 185.578,310.585 185.578,311.300 185.489 C 312.015 185.401,311.430 185.328,310.000 185.328 C 308.570 185.328,307.985 185.401,308.700 185.489 M320.311 185.493 C 321.251 185.578,322.691 185.577,323.511 185.491 C 324.330 185.405,323.560 185.336,321.800 185.337 C 320.040 185.339,319.370 185.409,320.311 185.493 M339.100 185.489 C 339.815 185.578,340.985 185.578,341.700 185.489 C 342.415 185.401,341.830 185.328,340.400 185.328 C 338.970 185.328,338.385 185.401,339.100 185.489 M280.158 196.200 C 280.158 199.280,280.221 200.487,280.297 198.882 C 280.373 197.278,280.373 194.758,280.296 193.282 C 280.219 191.807,280.157 193.120,280.158 196.200 M331.760 196.600 C 331.761 199.900,331.822 201.197,331.898 199.482 C 331.973 197.767,331.972 195.067,331.897 193.482 C 331.821 191.897,331.759 193.300,331.760 196.600 M250.964 201.800 C 250.963 205.540,251.023 207.124,251.097 205.320 C 251.171 203.515,251.172 200.455,251.098 198.520 C 251.025 196.584,250.964 198.060,250.964 201.800 M220.155 203.400 C 220.156 206.260,220.220 207.378,220.297 205.883 C 220.374 204.389,220.374 202.049,220.296 200.683 C 220.218 199.318,220.155 200.540,220.155 203.400 M196.900 203.476 C 197.285 203.576,197.915 203.576,198.300 203.476 C 198.685 203.375,198.370 203.293,197.600 203.293 C 196.830 203.293,196.515 203.375,196.900 203.476 M197.500 209.082 C 197.995 209.178,198.805 209.178,199.300 209.082 C 199.795 208.987,199.390 208.909,198.400 208.909 C 197.410 208.909,197.005 208.987,197.500 209.082 M209.773 225.326 C 209.662 225.615,209.624 227.820,209.688 230.226 L 209.805 234.600 210.002 229.699 C 210.198 224.858,210.168 224.296,209.773 225.326 M120.100 225.476 C 120.485 225.576,121.115 225.576,121.500 225.476 C 121.885 225.375,121.570 225.293,120.800 225.293 C 120.030 225.293,119.715 225.375,120.100 225.476 M193.913 225.723 C 194.467 225.972,194.970 225.990,195.191 225.767 C 195.413 225.545,195.052 225.382,194.278 225.356 C 193.088 225.314,193.063 225.340,193.913 225.723 M216.707 225.490 C 217.426 225.579,218.506 225.577,219.107 225.486 C 219.708 225.395,219.120 225.322,217.800 225.324 C 216.480 225.326,215.988 225.401,216.707 225.490 M223.113 225.723 C 223.667 225.972,224.170 225.990,224.391 225.767 C 224.613 225.545,224.252 225.382,223.478 225.356 C 222.288 225.314,222.263 225.340,223.113 225.723 M251.300 225.476 C 251.685 225.576,252.315 225.576,252.700 225.476 C 253.085 225.375,252.770 225.293,252.000 225.293 C 251.230 225.293,250.915 225.375,251.300 225.476 M264.313 225.723 C 264.867 225.972,265.370 225.990,265.591 225.767 C 265.813 225.545,265.452 225.382,264.678 225.356 C 263.488 225.314,263.463 225.340,264.313 225.723 M249.197 229.118 L 249.393 232.600 249.515 229.438 C 249.581 227.699,249.493 226.132,249.318 225.956 C 249.143 225.780,249.088 227.203,249.197 229.118 M262.281 225.881 C 262.555 226.077,262.825 227.505,262.911 229.212 L 263.060 232.200 263.030 229.032 C 263.007 226.573,262.866 225.828,262.400 225.702 C 261.976 225.587,261.941 225.640,262.281 225.881 M250.093 227.600 C 250.093 228.370,250.175 228.685,250.276 228.300 C 250.376 227.915,250.376 227.285,250.276 226.900 C 250.175 226.515,250.093 226.830,250.093 227.600 M236.131 229.400 C 236.133 230.940,236.205 231.521,236.292 230.691 C 236.379 229.861,236.377 228.601,236.289 227.891 C 236.200 227.181,236.129 227.860,236.131 229.400 M229.600 229.669 C 229.600 229.851,230.140 230.000,230.800 230.000 C 231.460 230.000,232.000 229.930,232.000 229.845 C 232.000 229.760,231.460 229.612,230.800 229.515 C 230.140 229.418,229.600 229.487,229.600 229.669 M250.101 230.600 C 250.105 231.480,250.187 231.793,250.283 231.295 C 250.379 230.798,250.375 230.078,250.275 229.695 C 250.175 229.313,250.096 229.720,250.101 230.600 " stroke="none" fill="#fcac7c" fill-rule="evenodd"></path><path id="path3" d="M135.331 179.800 C 135.333 181.340,135.405 181.921,135.492 181.091 C 135.579 180.261,135.577 179.001,135.489 178.291 C 135.400 177.581,135.329 178.260,135.331 179.800 M273.731 182.600 C 273.733 184.140,273.805 184.721,273.892 183.891 C 273.979 183.061,273.977 181.801,273.889 181.091 C 273.800 180.381,273.729 181.060,273.731 182.600 M338.131 182.600 C 338.133 184.140,338.205 184.721,338.292 183.891 C 338.379 183.061,338.377 181.801,338.289 181.091 C 338.200 180.381,338.129 181.060,338.131 182.600 M135.377 197.000 C 135.377 203.380,135.432 205.934,135.499 202.676 C 135.567 199.417,135.566 194.197,135.499 191.076 C 135.431 187.954,135.376 190.620,135.377 197.000 M244.577 197.000 C 244.577 203.380,244.632 205.934,244.699 202.676 C 244.767 199.417,244.766 194.197,244.699 191.076 C 244.631 187.954,244.576 190.620,244.577 197.000 M273.757 196.000 C 273.757 198.970,273.820 200.185,273.897 198.700 C 273.974 197.215,273.974 194.785,273.897 193.300 C 273.820 191.815,273.757 193.030,273.757 196.000 M338.158 196.200 C 338.158 199.280,338.221 200.487,338.297 198.882 C 338.373 197.278,338.373 194.758,338.296 193.282 C 338.219 191.807,338.157 193.120,338.158 196.200 " stroke="none" fill="#fcc29a" fill-rule="evenodd"></path><path id="path4" d="M117.783 177.301 C 117.677 177.577,117.640 184.732,117.700 193.201 L 117.810 208.600 117.905 192.916 L 118.000 177.232 121.300 177.098 L 124.600 176.963 121.287 176.881 C 118.940 176.824,117.919 176.946,117.783 177.301 M130.300 177.093 C 131.235 177.177,132.765 177.177,133.700 177.093 C 134.635 177.009,133.870 176.940,132.000 176.940 C 130.130 176.940,129.365 177.009,130.300 177.093 M235.100 177.093 C 236.035 177.177,237.565 177.177,238.500 177.093 C 239.435 177.009,238.670 176.940,236.800 176.940 C 234.930 176.940,234.165 177.009,235.100 177.093 M319.900 177.093 C 320.835 177.177,322.365 177.177,323.300 177.093 C 324.235 177.009,323.470 176.940,321.600 176.940 C 319.730 176.940,318.965 177.009,319.900 177.093 M130.300 182.693 C 131.235 182.777,132.765 182.777,133.700 182.693 C 134.635 182.609,133.870 182.540,132.000 182.540 C 130.130 182.540,129.365 182.609,130.300 182.693 M235.100 182.693 C 236.035 182.777,237.565 182.777,238.500 182.693 C 239.435 182.609,238.670 182.540,236.800 182.540 C 234.930 182.540,234.165 182.609,235.100 182.693 M319.900 182.693 C 320.835 182.777,322.365 182.777,323.300 182.693 C 324.235 182.609,323.470 182.540,321.600 182.540 C 319.730 182.540,318.965 182.609,319.900 182.693 M181.693 197.200 C 181.693 197.970,181.775 198.285,181.876 197.900 C 181.976 197.515,181.976 196.885,181.876 196.500 C 181.775 196.115,181.693 196.430,181.693 197.200 M168.900 199.498 C 171.265 199.569,175.135 199.569,177.500 199.498 C 179.865 199.428,177.930 199.370,173.200 199.370 C 168.470 199.370,166.535 199.428,168.900 199.498 M279.900 209.082 C 280.395 209.178,281.205 209.178,281.700 209.082 C 282.195 208.987,281.790 208.909,280.800 208.909 C 279.810 208.909,279.405 208.987,279.900 209.082 M337.705 209.087 C 338.314 209.179,339.214 209.177,339.705 209.082 C 340.197 208.987,339.700 208.911,338.600 208.914 C 337.500 208.917,337.097 208.995,337.705 209.087 M117.445 225.528 C 117.333 225.708,117.773 225.777,118.421 225.682 C 119.070 225.587,119.600 225.440,119.600 225.355 C 119.600 225.050,117.643 225.207,117.445 225.528 M138.500 225.476 C 138.885 225.576,139.515 225.576,139.900 225.476 C 140.285 225.375,139.970 225.293,139.200 225.293 C 138.430 225.293,138.115 225.375,138.500 225.476 M143.300 225.476 C 143.685 225.576,144.315 225.576,144.700 225.476 C 145.085 225.375,144.770 225.293,144.000 225.293 C 143.230 225.293,142.915 225.375,143.300 225.476 M156.554 230.000 C 156.554 232.750,156.618 233.875,156.696 232.500 C 156.774 231.125,156.774 228.875,156.696 227.500 C 156.618 226.125,156.554 227.250,156.554 230.000 M161.700 225.476 C 162.085 225.576,162.715 225.576,163.100 225.476 C 163.485 225.375,163.170 225.293,162.400 225.293 C 161.630 225.293,161.315 225.375,161.700 225.476 M169.700 225.476 C 170.085 225.576,170.715 225.576,171.100 225.476 C 171.485 225.375,171.170 225.293,170.400 225.293 C 169.630 225.293,169.315 225.375,169.700 225.476 M180.900 225.476 C 181.285 225.576,181.915 225.576,182.300 225.476 C 182.685 225.375,182.370 225.293,181.600 225.293 C 180.830 225.293,180.515 225.375,180.900 225.476 M185.700 225.476 C 186.085 225.576,186.715 225.576,187.100 225.476 C 187.485 225.375,187.170 225.293,186.400 225.293 C 185.630 225.293,185.315 225.375,185.700 225.476 M188.900 225.476 C 189.285 225.576,189.915 225.576,190.300 225.476 C 190.685 225.375,190.370 225.293,189.600 225.293 C 188.830 225.293,188.515 225.375,188.900 225.476 M199.700 225.476 C 200.085 225.576,200.715 225.576,201.100 225.476 C 201.485 225.375,201.170 225.293,200.400 225.293 C 199.630 225.293,199.315 225.375,199.700 225.476 M210.554 230.000 C 210.554 232.750,210.618 233.875,210.696 232.500 C 210.774 231.125,210.774 228.875,210.696 227.500 C 210.618 226.125,210.554 227.250,210.554 230.000 M220.667 225.467 C 220.520 225.613,220.403 225.928,220.406 226.167 C 220.410 226.460,220.507 226.453,220.706 226.146 C 220.868 225.897,221.360 225.603,221.800 225.493 C 222.574 225.299,222.573 225.291,221.767 225.246 C 221.308 225.221,220.813 225.320,220.667 225.467 M240.100 225.476 C 240.485 225.576,241.115 225.576,241.500 225.476 C 241.885 225.375,241.570 225.293,240.800 225.293 C 240.030 225.293,239.715 225.375,240.100 225.476 M161.737 229.000 C 161.739 230.760,161.809 231.430,161.893 230.489 C 161.978 229.549,161.977 228.109,161.891 227.289 C 161.805 226.470,161.736 227.240,161.737 229.000 M185.728 228.400 C 185.728 229.830,185.801 230.415,185.889 229.700 C 185.978 228.985,185.978 227.815,185.889 227.100 C 185.801 226.385,185.728 226.970,185.728 228.400 M190.137 229.000 C 190.139 230.760,190.209 231.430,190.293 230.489 C 190.378 229.549,190.377 228.109,190.291 227.289 C 190.205 226.470,190.136 227.240,190.137 229.000 M193.337 229.000 C 193.339 230.760,193.409 231.430,193.493 230.489 C 193.578 229.549,193.577 228.109,193.491 227.289 C 193.405 226.470,193.336 227.240,193.337 229.000 M222.537 229.000 C 222.539 230.760,222.609 231.430,222.693 230.489 C 222.778 229.549,222.777 228.109,222.691 227.289 C 222.605 226.470,222.536 227.240,222.537 229.000 M235.337 229.000 C 235.339 230.760,235.409 231.430,235.493 230.489 C 235.578 229.549,235.577 228.109,235.491 227.289 C 235.405 226.470,235.336 227.240,235.337 229.000 M118.134 229.200 C 118.134 230.850,118.205 231.525,118.291 230.700 C 118.378 229.875,118.378 228.525,118.291 227.700 C 118.205 226.875,118.134 227.550,118.134 229.200 M263.734 229.200 C 263.734 230.850,263.805 231.525,263.891 230.700 C 263.978 229.875,263.978 228.525,263.891 227.700 C 263.805 226.875,263.734 227.550,263.734 229.200 " stroke="none" fill="#fcd4bc" fill-rule="evenodd"></path></g></svg>